<mxfile host="app.diagrams.net" modified="2020-10-28T08:33:58.914Z" agent="5.0 (Windows NT 10.0; Win64; x64) AppleWebKit/537.36 (KHTML, like Gecko) Chrome/86.0.4240.75 Safari/537.36" etag="zLttSbDj6N_FFZ0LWklM" version="13.8.3" type="github">
  <diagram id="kgpKYQtTHZ0yAKxKKP6v" name="Page-1">
    <mxGraphModel dx="782" dy="389" grid="1" gridSize="10" guides="1" tooltips="1" connect="1" arrows="1" fold="1" page="1" pageScale="1" pageWidth="850" pageHeight="1100" math="0" shadow="0">
      <root>
        <mxCell id="0" />
        <mxCell id="1" parent="0" />
        <mxCell id="di50UvhxiPVfrxPAAsGm-58" value="" style="rounded=0;whiteSpace=wrap;html=1;shadow=1;sketch=0;glass=0;strokeColor=#57C7FF;" parent="1" vertex="1">
          <mxGeometry x="10" y="60" width="570" height="360" as="geometry" />
        </mxCell>
        <mxCell id="di50UvhxiPVfrxPAAsGm-1" value="" style="rounded=1;whiteSpace=wrap;html=1;fillColor=#f8cecc;strokeColor=#b85450;" parent="1" vertex="1">
          <mxGeometry x="40" y="120" width="60" height="20" as="geometry" />
        </mxCell>
        <mxCell id="di50UvhxiPVfrxPAAsGm-2" value="Master" style="text;html=1;strokeColor=none;fillColor=none;align=center;verticalAlign=middle;whiteSpace=wrap;rounded=0;fontStyle=3" parent="1" vertex="1">
          <mxGeometry x="51" y="119" width="40" height="20" as="geometry" />
        </mxCell>
        <mxCell id="di50UvhxiPVfrxPAAsGm-9" value="" style="rounded=1;whiteSpace=wrap;html=1;fillColor=#d5e8d4;strokeColor=#82b366;" parent="1" vertex="1">
          <mxGeometry x="40" y="180" width="60" height="20" as="geometry" />
        </mxCell>
        <mxCell id="di50UvhxiPVfrxPAAsGm-10" value="" style="rounded=1;whiteSpace=wrap;html=1;fillColor=#ffe6cc;strokeColor=#d79b00;" parent="1" vertex="1">
          <mxGeometry x="40" y="240" width="60" height="20" as="geometry" />
        </mxCell>
        <mxCell id="di50UvhxiPVfrxPAAsGm-11" value="" style="rounded=1;whiteSpace=wrap;html=1;fillColor=#ffe6cc;strokeColor=#d79b00;" parent="1" vertex="1">
          <mxGeometry x="40" y="300" width="60" height="20" as="geometry" />
        </mxCell>
        <mxCell id="di50UvhxiPVfrxPAAsGm-12" value="" style="rounded=1;whiteSpace=wrap;html=1;fillColor=#dae8fc;strokeColor=#6c8ebf;" parent="1" vertex="1">
          <mxGeometry x="40" y="360" width="60" height="20" as="geometry" />
        </mxCell>
        <mxCell id="di50UvhxiPVfrxPAAsGm-13" value="HotFix" style="text;html=1;strokeColor=none;fillColor=none;align=center;verticalAlign=middle;whiteSpace=wrap;rounded=0;fontStyle=3" parent="1" vertex="1">
          <mxGeometry x="50" y="180" width="40" height="20" as="geometry" />
        </mxCell>
        <mxCell id="di50UvhxiPVfrxPAAsGm-16" value="HotFix1" style="text;html=1;strokeColor=none;fillColor=none;align=center;verticalAlign=middle;whiteSpace=wrap;rounded=0;fontStyle=3" parent="1" vertex="1">
          <mxGeometry x="51" y="240" width="40" height="20" as="geometry" />
        </mxCell>
        <mxCell id="di50UvhxiPVfrxPAAsGm-17" value="HotFix2" style="text;html=1;strokeColor=none;fillColor=none;align=center;verticalAlign=middle;whiteSpace=wrap;rounded=0;fontStyle=3" parent="1" vertex="1">
          <mxGeometry x="50" y="300" width="40" height="20" as="geometry" />
        </mxCell>
        <mxCell id="di50UvhxiPVfrxPAAsGm-18" value="Dev" style="text;html=1;strokeColor=none;fillColor=none;align=center;verticalAlign=middle;whiteSpace=wrap;rounded=0;fontStyle=3" parent="1" vertex="1">
          <mxGeometry x="51" y="360" width="40" height="20" as="geometry" />
        </mxCell>
        <mxCell id="di50UvhxiPVfrxPAAsGm-27" value="" style="html=1;verticalAlign=bottom;startArrow=oval;startFill=1;endArrow=circle;startSize=6;endSize=6;fillColor=#d5e8d4;strokeColor=#82b366;strokeWidth=2;endFill=1;" parent="1" edge="1">
          <mxGeometry width="80" relative="1" as="geometry">
            <mxPoint x="130" y="190" as="sourcePoint" />
            <mxPoint x="280.5" y="190" as="targetPoint" />
          </mxGeometry>
        </mxCell>
        <mxCell id="di50UvhxiPVfrxPAAsGm-29" value="" style="html=1;verticalAlign=bottom;startArrow=oval;startFill=1;endArrow=open;startSize=6;endSize=8;fillColor=#ffe6cc;strokeColor=#d79b00;strokeWidth=2;" parent="1" edge="1">
          <mxGeometry width="80" relative="1" as="geometry">
            <mxPoint x="220" y="249.5" as="sourcePoint" />
            <mxPoint x="560" y="250" as="targetPoint" />
          </mxGeometry>
        </mxCell>
        <mxCell id="di50UvhxiPVfrxPAAsGm-36" value="" style="endArrow=none;html=1;strokeWidth=2;exitX=1;exitY=0.5;exitDx=0;exitDy=0;fillColor=#f8cecc;strokeColor=#b85450;" parent="1" edge="1">
          <mxGeometry width="50" height="50" relative="1" as="geometry">
            <mxPoint x="100" y="129" as="sourcePoint" />
            <mxPoint x="130" y="129" as="targetPoint" />
          </mxGeometry>
        </mxCell>
        <mxCell id="di50UvhxiPVfrxPAAsGm-37" value="" style="endArrow=none;html=1;strokeWidth=2;exitX=1;exitY=0.5;exitDx=0;exitDy=0;fillColor=#d5e8d4;strokeColor=#82b366;" parent="1" source="di50UvhxiPVfrxPAAsGm-9" edge="1">
          <mxGeometry width="50" height="50" relative="1" as="geometry">
            <mxPoint x="110" y="139" as="sourcePoint" />
            <mxPoint x="130" y="190" as="targetPoint" />
          </mxGeometry>
        </mxCell>
        <mxCell id="di50UvhxiPVfrxPAAsGm-38" value="" style="endArrow=none;html=1;strokeWidth=2;fillColor=#ffe6cc;strokeColor=#d79b00;" parent="1" edge="1">
          <mxGeometry width="50" height="50" relative="1" as="geometry">
            <mxPoint x="100" y="250" as="sourcePoint" />
            <mxPoint x="130" y="250" as="targetPoint" />
            <Array as="points" />
          </mxGeometry>
        </mxCell>
        <mxCell id="di50UvhxiPVfrxPAAsGm-39" value="" style="endArrow=none;html=1;strokeWidth=2;fillColor=#ffe6cc;strokeColor=#d79b00;startArrow=oval;startFill=1;" parent="1" edge="1">
          <mxGeometry width="50" height="50" relative="1" as="geometry">
            <mxPoint x="130" y="250" as="sourcePoint" />
            <mxPoint x="180" y="250" as="targetPoint" />
            <Array as="points" />
          </mxGeometry>
        </mxCell>
        <mxCell id="di50UvhxiPVfrxPAAsGm-40" value="" style="endArrow=none;html=1;strokeWidth=2;fillColor=#ffe6cc;strokeColor=#d79b00;startArrow=oval;startFill=1;" parent="1" edge="1">
          <mxGeometry width="50" height="50" relative="1" as="geometry">
            <mxPoint x="180" y="250" as="sourcePoint" />
            <mxPoint x="220" y="250" as="targetPoint" />
            <Array as="points" />
          </mxGeometry>
        </mxCell>
        <mxCell id="di50UvhxiPVfrxPAAsGm-41" value="" style="endArrow=block;dashed=1;html=1;dashPattern=1 3;strokeWidth=2;fillColor=#ffe6cc;strokeColor=#d79b00;endFill=1;" parent="1" edge="1">
          <mxGeometry width="50" height="50" relative="1" as="geometry">
            <mxPoint x="220" y="250" as="sourcePoint" />
            <mxPoint x="265" y="197" as="targetPoint" />
          </mxGeometry>
        </mxCell>
        <mxCell id="di50UvhxiPVfrxPAAsGm-42" value="" style="html=1;verticalAlign=bottom;startArrow=none;startFill=0;endArrow=circle;startSize=6;endSize=6;fillColor=#d5e8d4;strokeColor=#82b366;strokeWidth=2;endFill=1;" parent="1" edge="1">
          <mxGeometry width="80" relative="1" as="geometry">
            <mxPoint x="278" y="190" as="sourcePoint" />
            <mxPoint x="368" y="190" as="targetPoint" />
          </mxGeometry>
        </mxCell>
        <mxCell id="di50UvhxiPVfrxPAAsGm-43" value="" style="endArrow=open;html=1;strokeWidth=2;fillColor=#d5e8d4;strokeColor=#82b366;endFill=0;" parent="1" edge="1">
          <mxGeometry width="50" height="50" relative="1" as="geometry">
            <mxPoint x="350" y="190" as="sourcePoint" />
            <mxPoint x="560" y="190" as="targetPoint" />
          </mxGeometry>
        </mxCell>
        <mxCell id="di50UvhxiPVfrxPAAsGm-44" value="" style="endArrow=none;html=1;strokeWidth=2;fillColor=#ffe6cc;strokeColor=#d79b00;" parent="1" edge="1">
          <mxGeometry width="50" height="50" relative="1" as="geometry">
            <mxPoint x="100" y="309.5" as="sourcePoint" />
            <mxPoint x="130" y="310" as="targetPoint" />
            <Array as="points" />
          </mxGeometry>
        </mxCell>
        <mxCell id="di50UvhxiPVfrxPAAsGm-45" value="" style="endArrow=none;html=1;strokeWidth=2;fillColor=#ffe6cc;strokeColor=#d79b00;startArrow=oval;startFill=1;" parent="1" edge="1">
          <mxGeometry width="50" height="50" relative="1" as="geometry">
            <mxPoint x="130" y="310" as="sourcePoint" />
            <mxPoint x="220" y="310" as="targetPoint" />
            <Array as="points" />
          </mxGeometry>
        </mxCell>
        <mxCell id="di50UvhxiPVfrxPAAsGm-46" value="" style="endArrow=none;html=1;strokeWidth=2;fillColor=#ffe6cc;strokeColor=#d79b00;startArrow=oval;startFill=1;" parent="1" edge="1">
          <mxGeometry width="50" height="50" relative="1" as="geometry">
            <mxPoint x="220" y="310" as="sourcePoint" />
            <mxPoint x="260" y="310" as="targetPoint" />
            <Array as="points" />
          </mxGeometry>
        </mxCell>
        <mxCell id="di50UvhxiPVfrxPAAsGm-47" value="" style="html=1;verticalAlign=bottom;startArrow=oval;startFill=1;endArrow=open;startSize=6;endSize=8;fillColor=#ffe6cc;strokeColor=#d79b00;strokeWidth=2;" parent="1" edge="1">
          <mxGeometry width="80" relative="1" as="geometry">
            <mxPoint x="260" y="309.5" as="sourcePoint" />
            <mxPoint x="560" y="310" as="targetPoint" />
          </mxGeometry>
        </mxCell>
        <mxCell id="di50UvhxiPVfrxPAAsGm-48" value="" style="endArrow=block;dashed=1;html=1;dashPattern=1 3;strokeWidth=2;fillColor=#ffe6cc;strokeColor=#d79b00;endFill=1;" parent="1" edge="1">
          <mxGeometry width="50" height="50" relative="1" as="geometry">
            <mxPoint x="260" y="310" as="sourcePoint" />
            <mxPoint x="353" y="197" as="targetPoint" />
          </mxGeometry>
        </mxCell>
        <mxCell id="di50UvhxiPVfrxPAAsGm-49" value="" style="endArrow=circle;html=1;strokeWidth=2;fillColor=#dae8fc;strokeColor=#6c8ebf;endFill=1;" parent="1" edge="1">
          <mxGeometry width="50" height="50" relative="1" as="geometry">
            <mxPoint x="100" y="369.5" as="sourcePoint" />
            <mxPoint x="140" y="370" as="targetPoint" />
            <Array as="points" />
          </mxGeometry>
        </mxCell>
        <mxCell id="di50UvhxiPVfrxPAAsGm-50" value="" style="endArrow=oval;html=1;strokeWidth=2;fillColor=#dae8fc;strokeColor=#6c8ebf;startArrow=none;startFill=0;endFill=1;" parent="1" edge="1">
          <mxGeometry width="50" height="50" relative="1" as="geometry">
            <mxPoint x="130" y="370" as="sourcePoint" />
            <mxPoint x="420" y="370" as="targetPoint" />
            <Array as="points" />
          </mxGeometry>
        </mxCell>
        <mxCell id="di50UvhxiPVfrxPAAsGm-51" value="" style="html=1;verticalAlign=bottom;startArrow=circle;startFill=1;endArrow=open;startSize=6;endSize=8;fillColor=#dae8fc;strokeColor=#6c8ebf;strokeWidth=2;" parent="1" edge="1">
          <mxGeometry width="80" relative="1" as="geometry">
            <mxPoint x="480" y="370" as="sourcePoint" />
            <mxPoint x="560" y="370" as="targetPoint" />
          </mxGeometry>
        </mxCell>
        <mxCell id="di50UvhxiPVfrxPAAsGm-54" value="" style="endArrow=block;dashed=1;html=1;dashPattern=1 3;strokeWidth=2;fillColor=#d5e8d4;strokeColor=#82b366;endFill=1;exitX=0.8;exitY=1.483;exitDx=0;exitDy=0;exitPerimeter=0;" parent="1" edge="1" source="di50UvhxiPVfrxPAAsGm-74">
          <mxGeometry width="50" height="50" relative="1" as="geometry">
            <mxPoint x="390" y="189" as="sourcePoint" />
            <mxPoint x="453" y="135" as="targetPoint" />
          </mxGeometry>
        </mxCell>
        <mxCell id="di50UvhxiPVfrxPAAsGm-55" value="" style="html=1;verticalAlign=bottom;startArrow=circle;startFill=1;endArrow=open;startSize=6;endSize=8;fillColor=#f8cecc;strokeColor=#b85450;strokeWidth=2;" parent="1" edge="1">
          <mxGeometry width="80" relative="1" as="geometry">
            <mxPoint x="450" y="128.5" as="sourcePoint" />
            <mxPoint x="560" y="129" as="targetPoint" />
          </mxGeometry>
        </mxCell>
        <mxCell id="di50UvhxiPVfrxPAAsGm-56" value="" style="verticalLabelPosition=bottom;html=1;verticalAlign=top;align=center;strokeColor=none;fillColor=#00BEF2;shape=mxgraph.azure.git_repository;" parent="1" vertex="1">
          <mxGeometry x="10" y="60" width="50" height="50" as="geometry" />
        </mxCell>
        <mxCell id="di50UvhxiPVfrxPAAsGm-68" value="&lt;font color=&quot;#82b366&quot;&gt;V1.1.0&lt;/font&gt;" style="text;html=1;strokeColor=#82b366;fillColor=#d5e8d4;align=center;verticalAlign=middle;whiteSpace=wrap;rounded=0;fontStyle=3" parent="1" vertex="1">
          <mxGeometry x="140" y="160" width="40" height="20" as="geometry" />
        </mxCell>
        <mxCell id="di50UvhxiPVfrxPAAsGm-70" value="&lt;font color=&quot;#b85450&quot;&gt;V1.1.2&lt;/font&gt;" style="text;html=1;strokeColor=#b85450;fillColor=#f8cecc;align=center;verticalAlign=middle;whiteSpace=wrap;rounded=0;fontStyle=3" parent="1" vertex="1">
          <mxGeometry x="440" y="96.5" width="40" height="20" as="geometry" />
        </mxCell>
        <mxCell id="di50UvhxiPVfrxPAAsGm-72" value="&lt;font color=&quot;#82b366&quot;&gt;V1.1.1&lt;/font&gt;" style="text;html=1;strokeColor=#82b366;fillColor=#d5e8d4;align=center;verticalAlign=middle;whiteSpace=wrap;rounded=0;fontStyle=3" parent="1" vertex="1">
          <mxGeometry x="250" y="159" width="40" height="20" as="geometry" />
        </mxCell>
        <mxCell id="di50UvhxiPVfrxPAAsGm-74" value="&lt;font color=&quot;#82b366&quot;&gt;V1.1.2&lt;/font&gt;" style="text;html=1;strokeColor=#82b366;fillColor=#d5e8d4;align=center;verticalAlign=middle;whiteSpace=wrap;rounded=0;fontStyle=3" parent="1" vertex="1">
          <mxGeometry x="330" y="159" width="40" height="20" as="geometry" />
        </mxCell>
        <mxCell id="di50UvhxiPVfrxPAAsGm-75" value="&lt;font color=&quot;#d79b00&quot;&gt;&amp;nbsp; &amp;nbsp; &amp;nbsp; &amp;nbsp; &amp;nbsp;Pull&amp;nbsp; &amp;nbsp; Request&lt;/font&gt;" style="text;html=1;strokeColor=none;fillColor=none;align=center;verticalAlign=middle;whiteSpace=wrap;rounded=0;shadow=1;glass=0;sketch=0;rotation=308;" parent="1" vertex="1">
          <mxGeometry x="263.85" y="242.65" width="115" height="20" as="geometry" />
        </mxCell>
        <mxCell id="di50UvhxiPVfrxPAAsGm-76" value="&lt;font color=&quot;#d79b00&quot;&gt;Commit&lt;/font&gt;" style="text;html=1;strokeColor=none;fillColor=none;align=center;verticalAlign=middle;whiteSpace=wrap;rounded=0;shadow=1;glass=0;sketch=0;" parent="1" vertex="1">
          <mxGeometry x="200" y="280" width="40" height="20" as="geometry" />
        </mxCell>
        <mxCell id="arap9E32E6joqJJOZGqk-1" value="" style="html=1;verticalAlign=bottom;startArrow=circle;startFill=1;endArrow=none;startSize=6;endSize=8;fillColor=#f8cecc;strokeColor=#b85450;strokeWidth=2;endFill=0;" edge="1" parent="1">
          <mxGeometry width="80" relative="1" as="geometry">
            <mxPoint x="120" y="130" as="sourcePoint" />
            <mxPoint x="460" y="130" as="targetPoint" />
          </mxGeometry>
        </mxCell>
        <mxCell id="arap9E32E6joqJJOZGqk-2" value="&lt;font color=&quot;#b85450&quot;&gt;V1.1.0&lt;/font&gt;" style="text;html=1;strokeColor=#b85450;fillColor=#f8cecc;align=center;verticalAlign=middle;whiteSpace=wrap;rounded=0;fontStyle=3" vertex="1" parent="1">
          <mxGeometry x="110" y="96.5" width="40" height="20" as="geometry" />
        </mxCell>
        <mxCell id="arap9E32E6joqJJOZGqk-3" value="" style="endArrow=block;dashed=1;html=1;dashPattern=1 3;strokeWidth=2;fillColor=#d5e8d4;endFill=1;strokeColor=#B85450;" edge="1" parent="1">
          <mxGeometry width="50" height="50" relative="1" as="geometry">
            <mxPoint x="130" y="133" as="sourcePoint" />
            <mxPoint x="130" y="185" as="targetPoint" />
          </mxGeometry>
        </mxCell>
        <mxCell id="arap9E32E6joqJJOZGqk-5" value="&lt;font color=&quot;#6c8ebf&quot;&gt;V1.2.0&lt;/font&gt;" style="text;html=1;strokeColor=#6c8ebf;fillColor=#dae8fc;align=center;verticalAlign=middle;whiteSpace=wrap;rounded=0;fontStyle=3" vertex="1" parent="1">
          <mxGeometry x="110" y="338" width="40" height="20" as="geometry" />
        </mxCell>
        <mxCell id="arap9E32E6joqJJOZGqk-6" value="" style="endArrow=block;dashed=1;html=1;dashPattern=1 3;strokeWidth=2;fillColor=#ffe6cc;endFill=1;strokeColor=#82B366;" edge="1" parent="1">
          <mxGeometry width="50" height="50" relative="1" as="geometry">
            <mxPoint x="357" y="190" as="sourcePoint" />
            <mxPoint x="417" y="360" as="targetPoint" />
          </mxGeometry>
        </mxCell>
        <mxCell id="arap9E32E6joqJJOZGqk-7" value="&lt;font color=&quot;#6c8ebf&quot;&gt;V1.2.1&lt;/font&gt;" style="text;html=1;strokeColor=#6c8ebf;fillColor=#dae8fc;align=center;verticalAlign=middle;whiteSpace=wrap;rounded=0;fontStyle=3" vertex="1" parent="1">
          <mxGeometry x="470" y="338" width="40" height="20" as="geometry" />
        </mxCell>
        <mxCell id="arap9E32E6joqJJOZGqk-8" value="" style="endArrow=block;dashed=1;html=1;dashPattern=1 3;strokeWidth=2;fillColor=#d5e8d4;strokeColor=#82b366;endFill=1;" edge="1" parent="1">
          <mxGeometry width="50" height="50" relative="1" as="geometry">
            <mxPoint x="130" y="203" as="sourcePoint" />
            <mxPoint x="130" y="304" as="targetPoint" />
          </mxGeometry>
        </mxCell>
        <mxCell id="arap9E32E6joqJJOZGqk-9" value="" style="endArrow=block;dashed=1;html=1;dashPattern=1 3;strokeWidth=2;fillColor=#d5e8d4;strokeColor=#82b366;endFill=1;" edge="1" parent="1">
          <mxGeometry width="50" height="50" relative="1" as="geometry">
            <mxPoint x="130" y="193" as="sourcePoint" />
            <mxPoint x="130" y="244" as="targetPoint" />
          </mxGeometry>
        </mxCell>
        <mxCell id="arap9E32E6joqJJOZGqk-10" value="&lt;font color=&quot;#d79b00&quot;&gt;V1.1.0&lt;/font&gt;" style="text;html=1;strokeColor=#d79b00;fillColor=#ffe6cc;align=center;verticalAlign=middle;whiteSpace=wrap;rounded=0;fontStyle=3" vertex="1" parent="1">
          <mxGeometry x="140" y="220" width="40" height="20" as="geometry" />
        </mxCell>
        <mxCell id="arap9E32E6joqJJOZGqk-11" value="&lt;font color=&quot;#d79b00&quot;&gt;V1.1.0&lt;/font&gt;" style="text;html=1;strokeColor=#d79b00;fillColor=#ffe6cc;align=center;verticalAlign=middle;whiteSpace=wrap;rounded=0;fontStyle=3" vertex="1" parent="1">
          <mxGeometry x="140" y="280" width="40" height="20" as="geometry" />
        </mxCell>
        <mxCell id="arap9E32E6joqJJOZGqk-12" value="&lt;font color=&quot;#d79b00&quot;&gt;V1.1.1&lt;/font&gt;" style="text;html=1;strokeColor=#d79b00;fillColor=#ffe6cc;align=center;verticalAlign=middle;whiteSpace=wrap;rounded=0;fontStyle=3" vertex="1" parent="1">
          <mxGeometry x="200" y="256" width="40" height="20" as="geometry" />
        </mxCell>
        <mxCell id="arap9E32E6joqJJOZGqk-13" value="&lt;font color=&quot;#d79b00&quot;&gt;V1.1.2&lt;/font&gt;" style="text;html=1;strokeColor=#d79b00;fillColor=#ffe6cc;align=center;verticalAlign=middle;whiteSpace=wrap;rounded=0;fontStyle=3" vertex="1" parent="1">
          <mxGeometry x="240" y="316" width="40" height="20" as="geometry" />
        </mxCell>
        <mxCell id="arap9E32E6joqJJOZGqk-14" value="&lt;font color=&quot;#6c8ebf&quot;&gt;V1.1.2&lt;/font&gt;" style="text;html=1;strokeColor=#6c8ebf;fillColor=#dae8fc;align=center;verticalAlign=middle;whiteSpace=wrap;rounded=0;fontStyle=3" vertex="1" parent="1">
          <mxGeometry x="360" y="340" width="40" height="20" as="geometry" />
        </mxCell>
        <mxCell id="arap9E32E6joqJJOZGqk-16" value="" style="endArrow=none;html=1;strokeWidth=2;fillColor=#dae8fc;strokeColor=#6c8ebf;startArrow=oval;startFill=1;" edge="1" parent="1">
          <mxGeometry width="50" height="50" relative="1" as="geometry">
            <mxPoint x="420" y="369.5" as="sourcePoint" />
            <mxPoint x="490" y="369.5" as="targetPoint" />
            <Array as="points" />
          </mxGeometry>
        </mxCell>
      </root>
    </mxGraphModel>
  </diagram>
</mxfile>
